# xmcd
#
# Track frame offsets:
# 150
# 2351
# 16669
# 30439
# 44319
# 55997
# 72814
# 90855
# 104004
# 120049
# 133420
# 144583
# 158931
# 172849
# 186732
# 198429
# 215112
# 233182
# 246427
# 262590
# 276043
#
# Disc length: 3827 seconds
#
#
# Revision: 0
# Processed by: cddbd v1.5PL3 Copyright (c) Steve Scherf et al.
# Submitted via: FreeRIP 2.60 
#
DISCID=1c0ef115
DTITLE=Play along for saxofoon
DYEAR=1900
DGENRE=Blues
TTITLE0=Tunina Notes - Play along for saxofoon - 01
TTITLE1=Cry me a River - Play along for saxofoon - 02
TTITLE2=Fever - Play along for saxofoon - 03
TTITLE3=God Bless the Child - Play along for saxofoon - 04
TTITLE4=Hit the road Jack - Play along for saxofoon - 05
TTITLE5=Harlem Nocturne - Play along for saxofoon - 06
TTITLE6=Li'l Darlin' - Play along for saxofoon - 07
TTITLE7=I whish I knew how it would feel to be free - Play along for saxofoon - 08
TTITLE8=Round Midnight - Play along for saxofoon - 09
TTITLE9=Swingin' Shepherd Blues - Play along for saxofoon - 10
TTITLE10=Moonglow - Play along for saxofoon - 11
TTITLE11=Cry me a river (zonder melodie) - Play along for saxofoon - 12
TTITLE12=Fever (zonder melodie) - Play along for saxofoon - 13
TTITLE13=God bless the Child (zonder melodie) - Play along for saxofoon - 14
TTITLE14=Hit the road Jack (zonder melodie) - Play along for saxofoon - 15
TTITLE15=Harlem Nocturne (zonder melodie) - Play along for saxofoon - 16
TTITLE16=Li'l Darlin' (zonder melodie) - Play along for saxofoon - 17
TTITLE17=I whish I knew how it would feel to be free (zonder melodie) - Play along for saxofoon - 18
TTITLE18=Round Midnight (zonder melodie) - Play along for saxofoon - 19
TTITLE19=Swingin' Shepherd Blues (zonder melodie) - Play along for saxofoon - 20
TTITLE20=Moonglow (zonder melodie) - Play along for saxofoon - 21
EXTD=Tracks with and without lead melody
EXTT0=
EXTT1=
EXTT2=
EXTT3=
EXTT4=
EXTT5=
EXTT6=
EXTT7=
EXTT8=
EXTT9=
EXTT10=
EXTT11=
EXTT12=
EXTT13=
EXTT14=
EXTT15=
EXTT16=
EXTT17=
EXTT18=
EXTT19=
EXTT20=
PLAYORDER=
